<?xml version="1.0" encoding="UTF-8" standalone="no"?><!DOCTYPE svg PUBLIC "-//W3C//DTD SVG 1.1//EN" "http://www.w3.org/Graphics/SVG/1.1/DTD/svg11.dtd"><svg width="100%" height="100%" viewBox="0 0 199 75" version="1.1" xmlns="http://www.w3.org/2000/svg" xmlns:xlink="http://www.w3.org/1999/xlink" xml:space="preserve" style="fill-rule:evenodd;clip-rule:evenodd;stroke-miterlimit:10;"><g id="Calque-2"><path d="M148.423,68.92c7.931,-16.697 5.365,-37.252 -8.034,-51.563c-10.508,-11.225 -25.287,-16.044 -39.464,-14.317" style="fill:none;stroke:#fff;stroke-width:1px;"/><path d="M61.054,40.367c-2.005,10.59 -0.312,21.767 5.155,31.437" style="fill:none;stroke:#fff;stroke-width:1px;"/><path d="M99.079,3.304c0.082,-0.013 0.163,-0.025 0.245,-0.038c-0.076,0.012 -0.157,0.025 -0.245,0.038m0.926,-0.134c0.307,-0.043 0.613,-0.093 0.92,-0.13c-10.296,-2.278 -21.504,0.392 -29.784,8.144c-8.161,7.64 -11.572,18.442 -10.142,28.733l-0.479,5.525l-0.258,6.064c0,0 13.903,-17.583 23.515,-26.581c8.03,-7.518 28.315,-21.943 28.315,-21.943l-12.087,0.188Z" style="fill:#fff;fill-rule:nonzero;"/><path d="M99.079,3.304c0.082,-0.013 0.163,-0.025 0.245,-0.038c-0.076,0.012 -0.157,0.025 -0.245,0.038Zm0.926,-0.134c0.307,-0.043 0.613,-0.093 0.92,-0.13c-10.296,-2.278 -21.504,0.392 -29.784,8.144c-8.161,7.64 -11.572,18.442 -10.142,28.733l-0.479,5.525l-0.258,6.064c0,0 13.903,-17.583 23.515,-26.581c8.03,-7.518 28.315,-21.943 28.315,-21.943l-12.087,0.188Z" style="fill:none;stroke:#fff;stroke-width:1px;stroke-linecap:round;stroke-linejoin:round;"/><path d="M70.234,10.093c-1.495,1.4 -3.842,1.323 -5.241,-0.173c-1.4,-1.495 -1.323,-3.841 0.172,-5.241c1.496,-1.4 3.842,-1.323 5.242,0.173c1.4,1.495 1.322,3.841 -0.173,5.241m-6.2,-6.866c-2.71,2.537 -2.852,6.83 -0.314,9.54l4.67,4.989c2.537,2.71 6.83,2.851 9.541,0.314c2.71,-2.537 2.851,-6.831 0.314,-9.54l-4.67,-4.989c-2.538,-2.71 -6.831,-2.852 -9.541,-0.314" style="fill:#fff;fill-rule:nonzero;"/><path d="M-0.292,68.788c6.192,0 6.192,4 12.385,4c6.193,0 6.193,-4 12.387,-4c6.195,0 6.195,4 12.39,4c6.194,0 6.194,-4 12.388,-4c6.194,0 6.194,4 12.388,4c6.195,0 6.195,-4 12.389,-4c6.196,0 6.196,4 12.392,4c6.195,0 6.195,-4 12.389,-4c6.196,0 6.196,4 12.391,4c6.195,0 6.195,-4 12.391,-4c6.193,0 6.193,4 12.387,4c6.195,0 6.195,-4 12.39,-4c6.197,0 6.197,4 12.395,4c6.195,0 6.195,-4 12.39,-4c6.2,0 6.2,4 12.399,4c6.2,0 6.2,-4 12.399,-4" style="fill:none;stroke:#fff;stroke-width:1px;"/></g></svg>