<?xml version="1.0" encoding="UTF-8" standalone="no"?><!DOCTYPE svg PUBLIC "-//W3C//DTD SVG 1.1//EN" "http://www.w3.org/Graphics/SVG/1.1/DTD/svg11.dtd"><svg width="100%" height="100%" viewBox="0 0 163 163" version="1.1" xmlns="http://www.w3.org/2000/svg" xmlns:xlink="http://www.w3.org/1999/xlink" xml:space="preserve" style="fill-rule:evenodd;clip-rule:evenodd;stroke-linecap:round;stroke-linejoin:round;"><g id="Calque-2"><path d="M81.233,0.675l0,80.333l10.167,-10.166l-10.167,-70.167Z" style="fill:#fff;fill-rule:nonzero;"/><path d="M81.233,0.675l-10.167,70.167l10.167,10.166l0,-80.333Zm-1,13.875l0,64.044l-8.105,-8.105l8.105,-55.939Z" style="fill:#fff;fill-rule:nonzero;"/><path d="M161.566,81.008l-80.333,0l10.166,10.167l70.167,-10.167Z" style="fill:#fff;fill-rule:nonzero;"/><path d="M91.4,70.841l-10.167,10.167l80.334,0l-70.167,-10.167Zm0.353,1.062l55.938,8.105l-64.043,0l8.105,-8.105Z" style="fill:#fff;fill-rule:nonzero;"/><path d="M81.233,161.342l0,-80.333l-10.167,10.166l10.167,70.167Z" style="fill:#fff;fill-rule:nonzero;"/><path d="M81.233,81.008l0,80.333l10.167,-70.166l-10.167,-10.167Zm1,2.414l8.105,8.105l-8.105,55.939l0,-64.044Z" style="fill:#fff;fill-rule:nonzero;"/><path d="M0.899,81.008l80.334,0l-10.167,-10.167l-70.167,10.167Z" style="fill:#fff;fill-rule:nonzero;"/><path d="M81.233,81.008l-80.333,0l70.166,10.167l10.167,-10.167Zm-2.414,1l-8.105,8.105l-55.939,-8.105l64.044,0Z" style="fill:#fff;fill-rule:nonzero;"/><path d="M129.233,33.008l-37.833,37.833l8.164,1.891l29.669,-39.724Z" style="fill:#fff;fill-rule:nonzero;"/><path d="M129.233,33.008l-48,35.851l0,12.149l48,-48Zm-8.888,7.693l-38.267,38.267l0,-9.686l38.267,-28.581Z" style="fill:#fff;fill-rule:nonzero;"/><path d="M129.233,129.008l-37.955,-37.955l-1.507,8.481l39.462,29.474Z" style="fill:#fff;fill-rule:nonzero;"/><path d="M93.382,81.008l-12.149,0l48,48l-35.851,-48Zm-0.424,0.845l28.581,38.267l-38.266,-38.267l9.685,0Z" style="fill:#fff;fill-rule:nonzero;"/><path d="M33.233,129.008l37.833,-37.833l-8.641,-1.252l-29.192,39.085Z" style="fill:#fff;fill-rule:nonzero;"/><path d="M81.233,81.008l-48,48l48,-35.851l0,-12.149Zm-0.845,2.04l0,9.686l-38.267,28.581l38.267,-38.267Z" style="fill:#fff;fill-rule:nonzero;"/><path d="M33.233,33.008l37.833,37.833l1.252,-8.641l-39.085,-29.192Z" style="fill:#fff;fill-rule:nonzero;"/><path d="M33.233,33.008l35.851,48l12.149,0l-48,-48Zm7.693,8.888l38.267,38.267l-9.686,0l-28.581,-38.267Z" style="fill:#fff;fill-rule:nonzero;"/><path d="M150.092,81.008c0,38.03 -30.829,68.859 -68.859,68.859c-38.029,0 -68.858,-30.829 -68.858,-68.859c0,-38.03 30.829,-68.859 68.858,-68.859c38.03,0 68.859,30.829 68.859,68.859Z" style="fill:none;stroke:#fff;stroke-width:1px;stroke-dasharray:12.02,12.02,12.02,12.02;"/><path d="M81.233,37.008c10.93,0 20.93,3.986 28.624,10.583" style="fill:none;stroke:#fff;stroke-width:1px;stroke-miterlimit:10;"/><path d="M51.219,48.834c6.707,-6.259 15.372,-10.446 24.977,-11.541" style="fill:none;stroke:#fff;stroke-width:1px;stroke-miterlimit:10;"/><path d="M37.233,81.008c0,-10.989 4.029,-21.037 10.689,-28.749" style="fill:none;stroke:#fff;stroke-width:1px;stroke-miterlimit:10;"/><path d="M49.094,111.06c-6.327,-6.764 -10.544,-15.526 -11.6,-25.237" style="fill:none;stroke:#fff;stroke-width:1px;stroke-miterlimit:10;"/><path d="M79.378,124.97c-10.295,-0.427 -19.677,-4.391 -26.961,-10.71" style="fill:none;stroke:#fff;stroke-width:1px;stroke-miterlimit:10;"/><path d="M110.647,113.732c-6.67,5.999 -15.184,9.989 -24.589,11.014" style="fill:none;stroke:#fff;stroke-width:1px;stroke-miterlimit:10;"/><path d="M125.233,81.008c0,11.032 -4.06,21.115 -10.767,28.838" style="fill:none;stroke:#fff;stroke-width:1px;stroke-miterlimit:10;"/><path d="M114.37,52.06c5.741,6.567 9.563,14.856 10.587,23.99" style="fill:none;stroke:#fff;stroke-width:1px;stroke-miterlimit:10;"/><path d="M81.233,42.937c9.019,0 17.305,3.136 23.828,8.377" style="fill:none;stroke:#fff;stroke-width:1px;stroke-miterlimit:10;"/><path d="M54.481,53.922c5.585,-5.517 12.868,-9.319 20.995,-10.552" style="fill:none;stroke:#fff;stroke-width:1px;stroke-miterlimit:10;"/><path d="M43.162,81.008c0,-8.944 3.084,-17.167 8.247,-23.665" style="fill:none;stroke:#fff;stroke-width:1px;stroke-miterlimit:10;"/><path d="M53.4,106.984c-5.1,-5.462 -8.611,-12.428 -9.796,-20.159" style="fill:none;stroke:#fff;stroke-width:1px;stroke-miterlimit:10;"/><path d="M79.274,119.03c-8.263,-0.419 -15.831,-3.472 -21.881,-8.337" style="fill:none;stroke:#fff;stroke-width:1px;stroke-miterlimit:10;"/><path d="M108.153,107.929c-5.62,5.62 -12.988,9.49 -21.218,10.727" style="fill:none;stroke:#fff;stroke-width:1px;stroke-miterlimit:10;"/><path d="M119.302,81.362c-0.081,8.885 -3.206,17.044 -8.382,23.483" style="fill:none;stroke:#fff;stroke-width:1px;stroke-miterlimit:10;"/><path d="M110.518,56.68c4.305,5.177 7.264,11.513 8.339,18.471" style="fill:none;stroke:#fff;stroke-width:1px;stroke-miterlimit:10;"/></g></svg>