<?xml version="1.0" encoding="UTF-8" standalone="no"?><!DOCTYPE svg PUBLIC "-//W3C//DTD SVG 1.1//EN" "http://www.w3.org/Graphics/SVG/1.1/DTD/svg11.dtd"><svg width="100%" height="100%" viewBox="0 0 244 70" version="1.1" xmlns="http://www.w3.org/2000/svg" xmlns:xlink="http://www.w3.org/1999/xlink" xml:space="preserve" style="fill-rule:evenodd;clip-rule:evenodd;stroke-linecap:round;stroke-linejoin:round;stroke-miterlimit:10;"><g id="Calque-2"><path d="M135.111,22.955c0.229,0.105 0.459,0.209 0.687,0.311c4.98,2.157 19.729,7.819 27.408,7.819c3.312,0 7.154,0.075 11.458,0.241c-0.027,-1.369 -0.167,-2.704 -0.42,-3.982c-0.791,-3.989 -3.983,-13.265 -16.524,-13.265c-13.796,0 -21.818,8.166 -22.609,8.876Zm-53.24,11.099c1.092,0 1.971,0.028 2.667,0.092c8.53,0.796 16.089,3.81 23.208,7.558c1.865,-2.473 3.71,-5.076 5.574,-7.708c1.867,-2.634 3.754,-5.298 5.701,-7.866c-13.393,-6.817 -28.286,-13.955 -40.74,-10.074c-10.494,3.266 -14.923,11.327 -15.808,18.605c3.761,-0.108 7.093,-0.232 9.935,-0.338c4.183,-0.155 7.257,-0.269 9.463,-0.269Zm-18.382,10.582c2.111,6.182 7.202,11.966 16.584,13.588c8.421,1.448 15.066,-2.427 21.091,-8.662c-5.62,-2.796 -11.348,-4.879 -17.555,-5.459c-1.45,-0.136 -5.798,0.026 -10.83,0.213c-2.683,0.1 -5.799,0.216 -9.29,0.32Zm53.01,2.054c0.923,0.554 1.843,1.11 2.759,1.663c4.862,2.938 9.454,5.712 14.228,7.968c13.093,6.184 23.787,0.5 24.235,0.255c0.16,-0.086 0.353,-0.181 0.52,-0.25c7.455,-3.075 12.262,-8.818 14.644,-15.045c-3.668,-0.135 -6.914,-0.196 -9.679,-0.196c-11.134,0 -29.397,-7.781 -31.442,-8.669c-1.206,-0.54 -2.423,-1.111 -3.656,-1.709c-2.201,2.822 -4.389,5.91 -6.628,9.07c-1.619,2.284 -3.271,4.616 -4.981,6.913Z" style="fill:none;stroke:#fff;stroke-width:1px;"/><path d="M63.037,44.636c-1.667,-5.156 -1.038,-9.958 -1.038,-9.958l5.545,-0.189c0,0 -1.59,5.803 5.662,9.812l-10.169,0.335Z" style="fill:#fff;fill-rule:nonzero;"/><path d="M53.533,28.591c0,0 -3.287,8.972 1.132,21.08" style="fill:none;stroke:#fff;stroke-width:1px;"/><path d="M107.746,41.704l11.513,6.649" style="fill:none;stroke:#fff;stroke-width:1px;"/><path d="M101.164,49.563l8.992,4.987" style="fill:none;stroke:#fff;stroke-width:1px;"/><path d="M119.021,26.13c0,0 5.599,-7.505 8.767,-10.005" style="fill:none;stroke:#fff;stroke-width:1px;"/><path d="M134.925,22.47c-3.117,2.531 -7.283,8.02 -7.283,8.02l5.708,2.094c0,0 1.201,-6.63 8.979,-6.208l-7.404,-3.906Z" style="fill:#fff;fill-rule:nonzero;"/><path d="M174.664,31.326l9.983,0.506" style="fill:none;stroke:#fff;stroke-width:1px;"/><path d="M172.885,41.281l10.306,0.515c0,0 -1.862,4.204 -2.612,5.954c0,0 -4.452,-3.355 -9.08,-3.427l1.386,-3.042Z" style="fill:#fff;fill-rule:nonzero;stroke:#fff;stroke-width:1px;"/><path d="M27.746,44.188c-2.217,-1.696 -3.759,-3.815 -4.254,-6.562c-0.174,-0.964 -0.255,-1.948 0.078,-2.871" style="fill:none;stroke:#fff;stroke-width:1px;"/><path d="M34.746,44.313c-1.654,-1.863 -2.903,-3.769 -3.53,-6.18c-0.282,-1.088 -0.364,-2.079 -0.428,-3.201" style="fill:none;stroke:#fff;stroke-width:1px;"/><path d="M43.308,44.563c-1.837,-1.814 -3.469,-3.833 -4.189,-6.312c-0.322,-1.108 -0.298,-2.178 -0.015,-3.296" style="fill:none;stroke:#fff;stroke-width:1px;"/><path d="M49.719,44.764c-1.084,-2.109 -2.045,-4.282 -2.875,-6.504c-0.403,-1.078 -0.78,-2.072 -0.892,-3.218" style="fill:none;stroke:#fff;stroke-width:1px;"/><path d="M58.243,55.633c2.297,0.917 7.429,-1.841 9.066,-3.695" style="fill:none;stroke:#fff;stroke-width:1px;"/><path d="M63.623,61.643c2.381,-0.245 6.609,-4.151 7.936,-6.143" style="fill:none;stroke:#fff;stroke-width:1px;"/><path d="M69.646,65.094c2.169,-0.584 5.871,-5.241 6.662,-7.344" style="fill:none;stroke:#fff;stroke-width:1px;"/><path d="M75.734,67.401c2.213,-0.774 5.227,-6.277 5.887,-8.526" style="fill:none;stroke:#fff;stroke-width:1px;"/><path d="M83.732,68.391c1.24,-0.499 2.185,-1.563 2.804,-2.747c0.62,-1.184 1.773,-5.581 1.023,-7.144" style="fill:none;stroke:#fff;stroke-width:1px;"/><path d="M92.272,67.151c1.355,-2.063 3.411,-6.713 0.786,-10.588" style="fill:none;stroke:#fff;stroke-width:1px;"/><path d="M99.847,63.642c0.588,-2.541 2.648,-6.205 -1.352,-11.205" style="fill:none;stroke:#fff;stroke-width:1px;"/><path d="M117.592,44.833c-0.182,-0.797 -0.364,-1.995 -0.546,-2.792c-0.552,-2.417 -1.8,-5.291 -4.113,-7.291" style="fill:none;stroke:#fff;stroke-width:1px;"/><path d="M122.558,37.813c-0.421,-2.047 -2.563,-7.375 -5.375,-9.188" style="fill:none;stroke:#fff;stroke-width:1px;"/><path d="M54.93,50.442c2.172,0.699 7.908,-1.165 10.003,-2.067" style="fill:none;stroke:#fff;stroke-width:1px;"/><path d="M52.877,43.581c1.815,0.278 8.096,-0.122 9.931,-0.206" style="fill:none;stroke:#fff;stroke-width:1px;"/><path d="M52.621,36.875c1.5,0 8.188,0.125 9.688,0.125" style="fill:none;stroke:#fff;stroke-width:1px;"/><path d="M53.511,29.786c1.676,-0.357 8.059,1.774 9.291,2.99" style="fill:none;stroke:#fff;stroke-width:1px;"/><path d="M55.566,23.328c2.002,0.455 7.837,4.218 8.548,5.221" style="fill:none;stroke:#fff;stroke-width:1px;"/><path d="M58.626,18.445c1.99,0.328 6.782,5.253 7.424,6.423" style="fill:none;stroke:#fff;stroke-width:1px;"/><path d="M63.623,13.512c1.824,0.746 5.47,4.682 6.498,6.363" style="fill:none;stroke:#fff;stroke-width:1px;"/><path d="M68.623,9.407c1.578,0.781 4.935,4.656 5.623,7.969" style="fill:none;stroke:#fff;stroke-width:1px;"/><path d="M74.433,7.063c1.44,0.89 5.437,3.813 5,8.375" style="fill:none;stroke:#fff;stroke-width:1px;"/><path d="M81.076,5.534c1.954,0.462 5.248,5.577 3.357,9.216" style="fill:none;stroke:#fff;stroke-width:1px;"/><path d="M88.14,5.317c1.309,1.71 2.247,7.405 2.231,9.558" style="fill:none;stroke:#fff;stroke-width:1px;"/><path d="M95.434,6.272c1.23,1.949 2.071,8.049 2.124,10.353" style="fill:none;stroke:#fff;stroke-width:1px;"/><path d="M102.639,8.11c1.391,1.742 2.107,6.515 0.294,10.077" style="fill:none;stroke:#fff;stroke-width:1px;"/><path d="M109.089,10.637c1.385,1.111 2.969,6.801 -0.781,10.051" style="fill:none;stroke:#fff;stroke-width:1px;"/><path d="M116.488,14.097c2.133,3.528 0.383,8.361 -1.679,9.653" style="fill:none;stroke:#fff;stroke-width:1px;"/><path d="M132.675,55.946c-3.162,2.435 -3.483,5.227 -4.93,8.537" style="fill:none;stroke:#fff;stroke-width:1px;"/><path d="M127.395,53.661c-1.85,1.282 -3.492,2.863 -4.842,4.664c-0.576,0.769 -1.102,1.705 -1.342,2.635" style="fill:none;stroke:#fff;stroke-width:1px;"/><path d="M116.425,46.688c-3.305,0.562 -4.741,2.875 -6.116,7.75" style="fill:none;stroke:#fff;stroke-width:1px;"/><path d="M108.067,42.245c-2.119,0.88 -5.656,5.214 -7.009,7.068" style="fill:none;stroke:#fff;stroke-width:1px;"/><path d="M92.292,35.538c-1.796,1.637 -5.733,4.149 -5.733,8.837" style="fill:none;stroke:#fff;stroke-width:1px;"/><path d="M83.408,34.206c-2.537,1.169 -3.787,5.544 -2.975,9.669" style="fill:none;stroke:#fff;stroke-width:1px;"/><path d="M74.529,34.478c-0.813,1.586 -1.596,5.46 -0.096,9.522" style="fill:none;stroke:#fff;stroke-width:1px;"/><path d="M100.076,38.366c-1.103,0.473 -1.892,1.474 -2.487,2.517c-0.489,0.857 -1.968,3.118 -2.405,5.868" style="fill:none;stroke:#fff;stroke-width:1px;"/><path d="M183.191,41.796c-2.785,9.675 -9.612,18.932 -20.903,23.678c-2.321,1.206 -16.376,7.78 -33.074,-0.112c-5.236,-2.473 -10.265,-5.511 -15.127,-8.45c-1.318,-0.796 -2.627,-1.587 -3.931,-2.362c-8.207,9.168 -18.099,15.892 -31.786,13.527c-12.995,-2.245 -22.44,-11.118 -25.226,-23.21c-10.417,0.148 -22.905,-0.709 -36.679,-0.709c-6.99,0 -14.678,1.134 -14.678,-5.898c0,-7.032 10.989,-4.345 10.989,-4.345c14.875,0.976 28.447,1.11 39.634,0.96c0.929,-11.478 7.968,-23.72 22.898,-28.368c16.942,-5.274 35.363,4.133 50.166,11.688c0.046,0.024 0.091,0.047 0.137,0.071c1.782,-1.865 14.51,-15.141 32.109,-14.187c13.617,0.738 23.727,8.17 26.332,21.321c0.408,2.055 0.608,4.216 0.595,6.432c14.746,0.913 23.973,1.428 44.307,4.61l2.948,0.37l5.831,0.621c2.74,0.34 4.686,2.837 4.346,5.578c-0.313,2.531 -2.468,4.385 -4.956,4.385c-0.205,0 -0.412,-0.012 -0.621,-0.039l-12.257,-1.519c0,0 -26.898,-3.164 -41.054,-4.042Z" style="fill:none;stroke:#fff;stroke-width:1px;"/><path d="M13.644,44.255c-3.134,-2.548 -5.011,-6.573 -4.951,-10.611" style="fill:none;stroke:#fff;stroke-width:1px;"/><path d="M16.108,34.281c0.618,3.745 2.214,6.9 4.826,9.656" style="fill:none;stroke:#fff;stroke-width:1px;"/><path d="M121.454,23.042c1.715,0.879 2.553,2.324 3.701,3.872c1.148,1.548 1.822,3.492 1.632,5.409" style="fill:none;stroke:#fff;stroke-width:1px;"/><path d="M126.878,16.888c1.33,1.008 2.494,2.235 3.432,3.615c1.079,1.589 1.87,3.453 1.791,5.372" style="fill:none;stroke:#fff;stroke-width:1px;"/><path d="M134.871,10.958c1.438,1.13 2.816,1.879 3.765,3.443c0.895,1.475 1.001,3.341 0.818,5.057" style="fill:none;stroke:#fff;stroke-width:1px;"/><path d="M140.454,7.792c1.597,0.847 2.719,1.644 3.808,3.086c1.09,1.442 1.697,3.322 1.315,5.089" style="fill:none;stroke:#fff;stroke-width:1px;"/><path d="M148.537,5.125c2.429,1.75 3.598,4.151 4.075,7.107c0.111,0.689 0.123,1.491 -0.382,1.973" style="fill:none;stroke:#fff;stroke-width:1px;"/><path d="M158.954,13.958c0.933,-1.483 1.791,-2.843 1.818,-4.594c0.013,-0.822 -0.184,-1.632 -0.379,-2.43c-0.25,-1.02 -0.556,-2.125 -1.407,-2.74c0.103,0.023 0.206,0.045 0.308,0.068" style="fill:none;stroke:#fff;stroke-width:1px;"/><path d="M164.711,15.216c2.306,-1.154 3.828,-3.721 3.733,-6.298c-0.019,-0.491 -0.091,-0.982 -0.236,-1.451c-0.108,-0.349 -0.654,-1.193 -0.837,-1.509" style="fill:none;stroke:#fff;stroke-width:1px;"/><path d="M169.704,18.375c1.814,0.099 3.41,-0.505 4.765,-1.715c1.355,-1.209 2.207,-2.967 2.315,-4.78" style="fill:none;stroke:#fff;stroke-width:1px;"/><path d="M173.287,23.792c2.795,0.986 5.564,0.24 7.937,-1.535c0.64,-0.478 1.265,-1.172 1.162,-1.963" style="fill:none;stroke:#fff;stroke-width:1px;"/><path d="M163.777,64.61c-3.237,-0.649 -4.574,-5.695 -4.401,-8.485" style="fill:none;stroke:#fff;stroke-width:1px;"/><path d="M153.779,58.204c-2.949,3.381 -1.523,7.389 2.471,9.437" style="fill:none;stroke:#fff;stroke-width:1px;"/><path d="M146.621,59.458c-1.685,2.455 -2.719,7.671 0.677,9.476" style="fill:none;stroke:#fff;stroke-width:1px;"/><path d="M140.581,58.909c-2.361,2.025 -4.319,6.114 -3.026,9.326" style="fill:none;stroke:#fff;stroke-width:1px;"/><path d="M122.287,50.208c-1.118,0.143 -3.583,1.583 -4.655,4.227c-0.542,1.338 -0.664,2.849 -0.412,4.271" style="fill:none;stroke:#fff;stroke-width:1px;"/><path d="M170.374,60.84c-2,-0.163 -3.9,-1.28 -5.015,-2.948c-0.899,-1.346 -1.534,-2.981 -1.453,-4.598" style="fill:none;stroke:#fff;stroke-width:1px;"/><path d="M177.264,53.627c-1.72,0.456 -3.618,0.194 -5.151,-0.709c-1.1,-0.649 -1.991,-1.594 -2.851,-2.538c-0.313,-0.343 -0.609,-0.752 -0.811,-1.17" style="fill:none;stroke:#fff;stroke-width:1px;"/><path d="M145.808,27.228c-0.538,0.008 -1.071,0.215 -1.473,0.572c-0.402,0.357 -0.662,0.843 -0.915,1.318c-0.46,0.866 -0.924,1.742 -1.182,2.689c-0.179,0.654 -0.256,1.333 -0.272,2.011c-0.021,0.919 -0.06,1.794 0.351,2.615" style="fill:none;stroke:#fff;stroke-width:1px;"/><path d="M150.866,28.714c-1.042,0.235 -1.769,1.168 -2.291,2.099c-0.679,1.212 -1.172,2.554 -1.229,3.941c-0.057,1.388 0.71,2.693 1.65,3.715" style="fill:none;stroke:#fff;stroke-width:1px;"/><path d="M158.746,30.656c-1.83,0.65 -3.49,1.931 -4.253,3.717c-0.763,1.786 -0.745,3.89 0.05,5.662" style="fill:none;stroke:#fff;stroke-width:1px;"/><path d="M166.527,31.281c-1.344,0.844 -2.369,3.446 -2.538,4.462c-0.183,1.101 -0.228,2.238 0.017,3.327c0.157,0.701 0.434,1.375 0.815,1.983" style="fill:none;stroke:#fff;stroke-width:1px;"/><path d="M174.527,31.313c-2.063,1.75 -2.016,4.482 -2.047,5.706c-0.013,0.512 -0.012,1.029 0.094,1.53c0.188,0.888 0.693,1.67 1.189,2.431" style="fill:none;stroke:#fff;stroke-width:1px;"/><path d="M184.732,31.582c-0.461,0.348 -0.922,0.697 -1.383,1.045c-0.565,0.426 -1.138,0.86 -1.571,1.42c-0.864,1.115 -1.082,2.644 -0.786,4.023c0.296,1.38 1.058,2.622 1.98,3.69" style="fill:none;stroke:#fff;stroke-width:1px;"/><path d="M192.996,32.406c-1.614,1.057 -2.677,2.59 -3.178,4.453c-0.501,1.863 -0.25,3.636 0.615,5.36" style="fill:none;stroke:#fff;stroke-width:1px;"/><path d="M202.27,33.106c-1.02,0.308 -1.932,0.961 -2.552,1.826c-0.792,1.104 -1.088,2.482 -1.294,3.825c-0.133,0.868 -0.237,1.753 -0.115,2.622c0.066,0.474 0.083,0.985 0.242,1.436" style="fill:none;stroke:#fff;stroke-width:1px;"/><path d="M209.371,33.875c-1.489,1.123 -2.665,2.68 -2.858,4.535c-0.194,1.855 0.632,4.059 1.858,5.465" style="fill:none;stroke:#fff;stroke-width:1px;"/><path d="M217.027,34.844c-1.785,1.078 -2.55,2.911 -3.108,4.921c-0.517,1.86 0.973,4.527 1.546,4.954" style="fill:none;stroke:#fff;stroke-width:1px;"/><path d="M225.371,35.875c-1.685,0.922 -2.802,2.243 -3.193,4.124c-0.39,1.881 0.083,3.923 1.261,5.441" style="fill:none;stroke:#fff;stroke-width:1px;"/><path d="M231.902,36.812c-1.727,2.025 -1.799,4.918 -0.28,7.104c0.931,1.34 2.073,2.392 3.467,3.24" style="fill:none;stroke:#fff;stroke-width:1px;"/></g></svg>