<?xml version="1.0" encoding="UTF-8" standalone="no"?><!DOCTYPE svg PUBLIC "-//W3C//DTD SVG 1.1//EN" "http://www.w3.org/Graphics/SVG/1.1/DTD/svg11.dtd"><svg width="100%" height="100%" viewBox="0 0 187 189" version="1.1" xmlns="http://www.w3.org/2000/svg" xmlns:xlink="http://www.w3.org/1999/xlink" xml:space="preserve" style="fill-rule:evenodd;clip-rule:evenodd;stroke-miterlimit:10;"><g id="Calque-2"><path d="M161.119,36.109c13.899,15.979 22.315,36.854 22.315,59.696c0,50.258 -40.742,91 -91,91c-50.258,0 -91,-40.742 -91,-91c0,-22.715 8.322,-43.486 22.084,-59.431" style="fill:none;stroke:#fff;stroke-width:1px;"/><path d="M29.741,29.845c16.321,-15.517 38.395,-25.041 62.693,-25.041c24.302,0 46.379,9.527 62.701,25.049" style="fill:none;stroke:#fff;stroke-width:1px;"/><path d="M137.961,62.061c6.999,9.427 11.138,21.102 11.138,33.744c0,31.297 -25.37,56.667 -56.666,56.667c-31.296,0 -56.667,-25.37 -56.667,-56.667c0,-12.704 4.181,-24.432 11.242,-33.883" style="fill:none;stroke:#fff;stroke-width:1px;"/><path d="M52.189,55.911c10.268,-10.358 24.507,-16.773 40.244,-16.773c15.648,0 29.815,6.343 40.07,16.597" style="fill:none;stroke:#fff;stroke-width:1px;"/><clipPath id="_clip1"><path d="M65.216,-15.463l27.217,111.352l27.66,-112.001l-27.66,-26.239l-27.217,26.888Z"/></clipPath><g clip-path="url(#_clip1)"><path d="M92.434,38.888c-31.385,0 -56.917,25.533 -56.917,56.917c0,31.384 25.532,56.916 56.917,56.916c31.384,0 56.916,-25.532 56.916,-56.916c0,-31.384 -25.532,-56.917 -56.916,-56.917m0,147.833c-50.132,0 -90.917,-40.785 -90.917,-90.916c0,-50.132 40.785,-90.917 90.917,-90.917c50.131,0 90.916,40.785 90.916,90.917c0,50.131 -40.785,90.916 -90.916,90.916" style="fill:#fff;fill-rule:nonzero;"/></g><clipPath id="_clip2"><path d="M92.433,95.889l112,27.659l26.239,-27.659l-26.888,-27.217l-111.351,27.217Z"/></clipPath><g clip-path="url(#_clip2)"><path d="M149.433,95.889c0,-31.384 -25.533,-56.917 -56.917,-56.917c-31.384,0 -56.916,25.533 -56.916,56.917c0,31.384 25.532,56.916 56.916,56.916c31.384,0 56.917,-25.532 56.917,-56.916m-147.833,0c0,-50.132 40.785,-90.917 90.916,-90.917c50.132,0 90.917,40.785 90.917,90.917c0,50.131 -40.785,90.916 -90.917,90.916c-50.131,0 -90.916,-40.785 -90.916,-90.916" style="fill:#fff;fill-rule:nonzero;"/></g><clipPath id="_clip3"><path d="M64.773,207.888l27.66,26.24l27.216,-26.888l-27.216,-111.351l-27.66,111.999Z"/></clipPath><g clip-path="url(#_clip3)"><path d="M92.433,152.888c31.384,0 56.917,-25.533 56.917,-56.917c0,-31.384 -25.533,-56.916 -56.917,-56.916c-31.384,0 -56.916,25.532 -56.916,56.916c0,31.384 25.532,56.917 56.916,56.917m0,-147.833c50.132,0 90.917,40.785 90.917,90.916c0,50.132 -40.785,90.917 -90.917,90.917c-50.131,0 -90.916,-40.785 -90.916,-90.917c0,-50.131 40.785,-90.916 90.916,-90.916" style="fill:#fff;fill-rule:nonzero;"/></g><clipPath id="_clip4"><path d="M-45.807,95.889l26.889,27.216l111.351,-27.216l-112,-27.66l-26.24,27.66Z"/></clipPath><g clip-path="url(#_clip4)"><path d="M35.433,95.888c0,31.384 25.533,56.917 56.917,56.917c31.384,0 56.916,-25.533 56.916,-56.917c0,-31.384 -25.532,-56.916 -56.916,-56.916c-31.384,0 -56.917,25.532 -56.917,56.916m147.833,0c0,50.132 -40.785,90.917 -90.916,90.917c-50.132,0 -90.917,-40.785 -90.917,-90.917c0,-50.131 40.785,-90.916 90.917,-90.916c50.131,0 90.916,40.785 90.916,90.916" style="fill:#fff;fill-rule:nonzero;"/></g><path d="M160.809,36.378c-2.235,4.057 -6.742,11.178 -14.061,18.312c-10.095,9.84 -27.674,21.568 -54.093,21.568c-26.41,0 -44.106,-11.721 -54.3,-21.554c-7.421,-7.157 -12.009,-14.301 -14.276,-18.345l-0.253,-0.21c-1.182,-1.476 -1.656,-3.557 -1.009,-5.334c0.648,-1.777 2.499,-3.107 4.383,-2.94c0.385,0.034 0.771,0.128 1.105,0.324c0.336,0.197 0.606,0.488 0.855,0.788c0.541,0.649 0.512,0.786 0.512,0.786c0.748,1.669 17.802,38.485 62.983,38.485c45.387,0 62.358,-38.067 62.524,-38.451c0,0 2.471,-3.669 5.63,-1.044c3.159,2.625 0,7.615 0,7.615Z" style="fill:none;stroke:#fff;stroke-width:1px;"/><g><clipPath id="_clip5"><path d="M155.179,29.807c-0.166,0.384 -17.137,38.451 -62.524,38.451c-45.181,0 -62.235,-36.816 -62.983,-38.485c0,0 0.028,-0.137 -0.512,-0.786c-0.25,-0.299 -0.519,-0.591 -0.855,-0.788c-0.334,-0.196 -0.72,-0.29 -1.105,-0.324c-1.885,-0.166 -3.736,1.163 -4.384,2.94c-0.647,1.777 -0.172,3.858 1.01,5.335l0.252,0.209c2.267,4.044 6.856,11.188 14.276,18.346c10.195,9.832 27.891,21.553 54.301,21.553c26.419,0 43.998,-11.728 54.093,-21.568c7.319,-7.134 11.825,-14.255 14.061,-18.312c0,0 3.159,-4.989 0,-7.615c-0.833,-0.691 -1.617,-0.946 -2.321,-0.946c-1.969,0 -3.309,1.99 -3.309,1.99Z"/></clipPath><g clip-path="url(#_clip5)"><path d="M23.826,36.149c0.856,-0.383 4.41,0.18 5.154,0.332c2.108,0.428 3.951,1.312 5.881,2.261" style="fill:none;stroke:#fff;stroke-width:1px;stroke-linecap:round;stroke-linejoin:round;"/><path d="M29.139,44.73c1.274,-0.978 2.685,-1.816 4.24,-2.221c1.554,-0.405 3.268,-0.346 4.695,0.392" style="fill:none;stroke:#fff;stroke-width:1px;stroke-linecap:round;stroke-linejoin:round;"/><path d="M34.271,50.71c0.207,-0.609 0.712,-1.065 1.221,-1.459c0.954,-0.739 2.004,-1.372 3.153,-1.741c1.149,-0.369 2.403,-0.465 3.566,-0.143c-0.052,0.04 -0.105,0.081 -0.158,0.121" style="fill:none;stroke:#fff;stroke-width:1px;stroke-linecap:round;stroke-linejoin:round;"/><path d="M39.15,55.753c2.093,-2.411 5.407,-3.702 8.58,-3.342" style="fill:none;stroke:#fff;stroke-width:1px;stroke-linecap:round;stroke-linejoin:round;"/><path d="M44.237,59.741c1.005,-2.072 2.974,-3.65 5.215,-4.18c0.768,-0.181 1.592,-0.242 2.335,0.025" style="fill:none;stroke:#fff;stroke-width:1px;stroke-linecap:round;stroke-linejoin:round;"/><path d="M56.431,58.605c-0.699,-0.154 -1.444,-0.097 -2.112,0.161c-0.338,0.131 -0.655,0.311 -0.952,0.519c-1.667,1.17 -2.623,3.28 -2.405,5.305" style="fill:none;stroke:#fff;stroke-width:1px;stroke-linecap:round;stroke-linejoin:round;"/><path d="M63.278,62.116c-1.334,0.295 -2.586,0.952 -3.587,1.883c-0.687,0.638 -1.262,1.415 -1.571,2.301c-0.31,0.886 -0.337,1.886 0.023,2.753c0.035,0.084 0.169,0.165 0.191,0.076" style="fill:none;stroke:#fff;stroke-width:1px;stroke-linecap:round;stroke-linejoin:round;"/><path d="M70.259,62.886c-0.969,0.448 -1.866,1.048 -2.651,1.771c-0.578,0.532 -1.101,1.14 -1.442,1.848c-0.59,1.225 -0.589,2.675 -0.222,3.985c0.367,1.309 1.075,2.498 1.86,3.608" style="fill:none;stroke:#fff;stroke-width:1px;stroke-linecap:round;stroke-linejoin:round;"/><path d="M74.67,64.781c-0.242,-0.082 -0.45,0.184 -0.559,0.415c-0.84,1.779 -1.077,3.835 -0.664,5.758c0.413,1.923 1.473,3.701 2.97,4.978c0.25,0.213 0.649,0.407 0.872,0.165" style="fill:none;stroke:#fff;stroke-width:1px;stroke-linecap:round;stroke-linejoin:round;"/><path d="M85.564,65.703c-0.99,0.547 -1.357,1.764 -1.609,2.865c-0.355,1.547 -0.661,3.125 -0.579,4.71c0.083,1.585 0.588,3.196 1.674,4.353c0.155,0.166 0.331,0.327 0.551,0.383c0.22,0.056 0.491,-0.029 0.576,-0.239" style="fill:none;stroke:#fff;stroke-width:1px;stroke-linecap:round;stroke-linejoin:round;"/><path d="M92.613,65.826c-0.724,1.116 -0.78,2.529 -0.722,3.858c0.078,1.772 0.326,3.561 1.021,5.193c0.694,1.632 1.873,3.105 3.462,3.893" style="fill:none;stroke:#fff;stroke-width:1px;stroke-linecap:round;stroke-linejoin:round;"/><path d="M99.857,65.538c-0.27,2.238 0.752,4.425 1.929,6.347c0.853,1.395 1.804,2.73 2.842,3.994c0.673,0.819 1.464,1.656 2.507,1.846" style="fill:none;stroke:#fff;stroke-width:1px;stroke-linecap:round;stroke-linejoin:round;"/><path d="M108.887,66.646c-0.28,4.859 4.653,7.058 9.419,8.019" style="fill:none;stroke:#fff;stroke-width:1px;stroke-linecap:round;stroke-linejoin:round;"/><path d="M116.921,62.084c-0.41,0.241 -0.191,0.872 0.092,1.254c0.373,0.502 0.784,0.974 1.2,1.441c1.423,1.598 2.924,3.162 4.738,4.296c1.814,1.134 3.989,1.811 6.103,1.485c-0.104,-0.024 -0.208,-0.049 -0.312,-0.073" style="fill:none;stroke:#fff;stroke-width:1px;stroke-linecap:round;stroke-linejoin:round;"/><path d="M123.971,58.566c-0.145,0.703 0.244,1.407 0.709,1.953c0.782,0.919 1.803,1.598 2.814,2.256c2.754,1.791 5.832,3.584 9.096,3.222" style="fill:none;stroke:#fff;stroke-width:1px;stroke-linecap:round;stroke-linejoin:round;"/><path d="M131.621,53.194c1.658,2.409 4.2,4.137 6.967,5.081c2.767,0.944 5.752,1.138 8.664,0.867" style="fill:none;stroke:#fff;stroke-width:1px;stroke-linecap:round;stroke-linejoin:round;"/><path d="M137.257,49.299c0.145,0.843 0.931,1.402 1.664,1.844c1.93,1.162 3.985,2.179 6.196,2.607c2.212,0.429 4.609,0.223 6.544,-0.93" style="fill:none;stroke:#fff;stroke-width:1px;stroke-linecap:round;stroke-linejoin:round;"/><path d="M142.502,43.526c0.842,0.865 1.82,1.59 2.858,2.205c3.759,2.226 8.368,2.974 12.638,2.05c0.058,-0.013 0.128,-0.039 0.132,-0.097c0.005,-0.059 -0.12,-0.053 -0.087,-0.004" style="fill:none;stroke:#fff;stroke-width:1px;stroke-linecap:round;stroke-linejoin:round;"/><path d="M147.804,36.286c0.754,1.699 2.665,2.525 4.44,3.08c1.139,0.356 2.296,0.666 3.477,0.835c1.818,0.259 3.684,0.178 5.473,-0.237" style="fill:none;stroke:#fff;stroke-width:1px;stroke-linecap:round;stroke-linejoin:round;"/></g></g></g></svg>