<?xml version="1.0" encoding="UTF-8" standalone="no"?><!DOCTYPE svg PUBLIC "-//W3C//DTD SVG 1.1//EN" "http://www.w3.org/Graphics/SVG/1.1/DTD/svg11.dtd"><svg width="100%" height="100%" viewBox="0 0 11 21" version="1.1" xmlns="http://www.w3.org/2000/svg" xmlns:xlink="http://www.w3.org/1999/xlink" xml:space="preserve" style="fill-rule:evenodd;clip-rule:evenodd;stroke-linejoin:round;stroke-miterlimit:1.41421;"><rect id="Plan-de-travail1" x="0" y="0" width="10.673" height="20.116" style="fill:none;"/><g><path d="M0.078,5.859l2.285,0l0,-1.064c0,-1.189 0.139,-2.076 0.417,-2.661c0.279,-0.586 0.791,-1.063 1.538,-1.431c0.748,-0.368 1.692,-0.552 2.835,-0.552c1.172,0 2.319,0.159 3.442,0.479l-0.556,2.608c-0.655,-0.142 -1.284,-0.213 -1.89,-0.213c-0.596,0 -1.023,0.127 -1.282,0.379c-0.258,0.253 -0.388,0.739 -0.388,1.457l0,0.998l3.076,0l0,2.941l-3.076,0l0,11.192l-4.116,0l0,-11.192l-2.285,0l0,-2.941Z" style="fill:#00bdff;fill-rule:nonzero;"/></g></svg>