<?xml version="1.0" encoding="UTF-8" standalone="no"?>
<!DOCTYPE svg PUBLIC "-//W3C//DTD SVG 1.1//EN" "http://www.w3.org/Graphics/SVG/1.1/DTD/svg11.dtd">
<svg width="100%" height="100%" viewBox="0 0 707 3406" version="1.1" xmlns="http://www.w3.org/2000/svg" xmlns:xlink="http://www.w3.org/1999/xlink" xml:space="preserve" style="fill-rule:evenodd;clip-rule:evenodd;stroke-linecap:round;stroke-linejoin:round;stroke-miterlimit:10;">
    <g id="Calque.-2">
        <path d="M363.796,1614.08C368.031,1689.31 560.554,1750.04 557.171,1678.6C553.932,1610.23 335.825,1707.13 308.609,1722.69C235.5,1764.52 154.114,1838.5 122.11,1918.01C88.619,2001.21 69.508,2106.02 108.033,2190.6C108.033,2190.6 134.685,2252.26 173.531,2303" style="fill:none;stroke:white;stroke-width:1px;stroke-dasharray:1,3,1,3;"/>
        <path d="M62.543,691.293C62.543,691.293 117.244,818.929 237.745,828.442" style="fill:none;stroke:white;stroke-width:1px;stroke-dasharray:1,3,1,3;"/>
        <path d="M489.846,831.613C517.158,836.687 554.58,844.203 579.654,856.16C604.728,868.117 627.328,887.838 636.645,914.008C647.664,944.956 638.149,980.665 618.014,1006.62C597.878,1032.58 568.462,1049.9 537.92,1061.99C507.378,1074.09 475.226,1081.54 443.953,1091.6C387.25,1109.84 333.357,1136.78 284.74,1171.2C253.104,1193.59 223.107,1219.84 204.065,1253.6C185.022,1287.36 182.251,1343.74 211.584,1384.97" style="fill:none;stroke:white;stroke-width:1px;stroke-dasharray:1,3,1,3;"/>
        <path d="M16.562,543.837C9.427,489.136 18.561,450.094 27.524,410.476C52.237,301.249 195.704,189.528 214,161.193C229.546,137.117 235.964,101.767 214.243,79.172C193.413,57.503 159.423,58.088 135.575,74.09C113.347,89.004 89.519,124.458 107.625,150.718C124.802,175.63 165.03,171.995 190.649,167.141C269.456,152.209 366.405,17.338 366.966,11.888" style="fill:none;stroke:white;stroke-width:1px;stroke-dasharray:1,3,1,3;"/>
        <path d="M478.025,3166.25C363.921,3210.1 290.166,3329.24 256.073,3346.26C251.739,3348.43 247.195,3350.5 242.355,3350.71C237.516,3350.92 232.275,3348.85 230.065,3344.54C227.652,3339.83 229.684,3333.65 233.867,3330.41C238.05,3327.17 243.826,3326.56 248.99,3327.7C254.155,3328.85 258.825,3331.57 263.227,3334.51C282.527,3347.37 298.346,3364.95 317.773,3377.63C320.929,3379.69 324.226,3381.64 327.861,3382.63C335.026,3384.59 342.791,3382.6 349.274,3378.98C354.609,3376 359.429,3371.78 362.125,3366.3C364.82,3360.81 365.117,3353.96 361.966,3348.72C358.816,3343.48 351.917,3340.49 346.204,3342.66" style="fill:none;stroke:white;stroke-width:1px;stroke-dasharray:1,3,1,3;"/>
        <path d="M313.124,2467.94C372.959,2512.4 444.881,2545.56 504.079,2582.62C610.78,2649.41 682.663,2739.8 687.381,2869.58C691.409,2980.36 634.885,3054.36 557.127,3113.6" style="fill:none;stroke:white;stroke-width:1px;stroke-dasharray:1,3,1,3;"/>
        <path d="M221.185,2367.7C237.505,2397.73 259.809,2423.25 285.59,2445.81" style="fill:none;stroke:white;stroke-width:1px;stroke-dasharray:1,3,1,3;"/>
    </g>
</svg>
