<?xml version="1.0" encoding="UTF-8" standalone="no"?>
<!DOCTYPE svg PUBLIC "-//W3C//DTD SVG 1.1//EN" "http://www.w3.org/Graphics/SVG/1.1/DTD/svg11.dtd">
<svg width="100%" height="100%" viewBox="0 0 92 66" version="1.1" xmlns="http://www.w3.org/2000/svg" xmlns:xlink="http://www.w3.org/1999/xlink" xml:space="preserve" style="fill-rule:evenodd;clip-rule:evenodd;stroke-linejoin:round;stroke-miterlimit:1.41421;">
    <g id="Calque.-2">
        <g transform="matrix(1,0,0,1,-2727.12,-383.04)">
            <g>
                <g transform="matrix(1,0,0,1,2727.05,416.783)">
                    <path d="M6.263,-32.025L11.85,-32.025L17.775,0L12.862,0L11.981,-5.738L6.131,-5.738L5.287,0L0.356,0L6.263,-32.025ZM11.419,-9.394L9.169,-25.35L8.963,-25.35L6.694,-9.394L11.419,-9.394Z" style="fill:white;fill-rule:nonzero;"/>
                </g>
                <g transform="matrix(1,0,0,1,2749.69,416.783)">
                    <path d="M1.706,-3.356C1.706,-4.681 1.969,-5.631 2.494,-6.206C3.019,-6.781 3.731,-7.069 4.631,-7.069C5.569,-7.069 6.294,-6.763 6.806,-6.15C7.319,-5.538 7.575,-4.606 7.575,-3.356C7.575,-2.206 7.316,-1.316 6.797,-0.684C6.278,-0.053 5.55,0.262 4.613,0.263C3.725,0.262 3.019,-0.044 2.494,-0.656C1.969,-1.269 1.706,-2.169 1.706,-3.356Z" style="fill:white;fill-rule:nonzero;"/>
                </g>
            </g>
            <g transform="matrix(1,0,0,1,2763.58,416.783)">
                <path d="M6.581,0.3C5.381,0.3 4.375,0.112 3.563,-0.263C2.75,-0.637 2.097,-1.147 1.603,-1.791C1.109,-2.434 0.756,-3.188 0.544,-4.05C0.331,-4.912 0.225,-5.825 0.225,-6.787C0.225,-7.462 0.269,-8.222 0.356,-9.066C0.444,-9.909 0.575,-10.756 0.75,-11.606L4.631,-11.606L4.575,-7.706C4.575,-6.881 4.613,-6.191 4.688,-5.634C4.763,-5.078 4.878,-4.634 5.034,-4.303C5.191,-3.972 5.391,-3.734 5.634,-3.591C5.878,-3.447 6.175,-3.375 6.525,-3.375C6.813,-3.375 7.072,-3.431 7.303,-3.544C7.534,-3.656 7.731,-3.853 7.894,-4.134C8.056,-4.416 8.181,-4.797 8.269,-5.278C8.356,-5.759 8.4,-6.363 8.4,-7.087L8.456,-32.025L13.313,-32.025L13.313,-7.762C13.313,-6.113 13.125,-4.763 12.75,-3.713C12.375,-2.663 11.872,-1.841 11.241,-1.247C10.609,-0.653 9.891,-0.247 9.084,-0.028C8.278,0.191 7.444,0.3 6.581,0.3Z" style="fill:white;fill-rule:nonzero;"/>
            </g>
            <g>
                <g transform="matrix(1,0,0,1,2784.12,416.783)">
                    <path d="M1.706,-3.356C1.706,-4.681 1.969,-5.631 2.494,-6.206C3.019,-6.781 3.731,-7.069 4.631,-7.069C5.569,-7.069 6.294,-6.763 6.806,-6.15C7.319,-5.538 7.575,-4.606 7.575,-3.356C7.575,-2.206 7.316,-1.316 6.797,-0.684C6.278,-0.053 5.55,0.262 4.613,0.263C3.725,0.262 3.019,-0.044 2.494,-0.656C1.969,-1.269 1.706,-2.169 1.706,-3.356Z" style="fill:white;fill-rule:nonzero;"/>
                </g>
                <g transform="matrix(1,0,0,1,2798.01,416.783)">
                    <path d="M2.737,-32.025L7.781,-32.025C8.544,-32.025 9.334,-32.003 10.153,-31.959C10.972,-31.916 11.772,-31.781 12.553,-31.556C13.334,-31.331 14.072,-30.984 14.766,-30.516C15.459,-30.047 16.069,-29.391 16.594,-28.547C17.119,-27.703 17.534,-26.641 17.841,-25.359C18.147,-24.078 18.3,-22.513 18.3,-20.662L18.3,-11.362C18.3,-9.513 18.147,-7.944 17.841,-6.656C17.534,-5.369 17.119,-4.306 16.594,-3.469C16.069,-2.631 15.459,-1.978 14.766,-1.509C14.072,-1.041 13.334,-0.694 12.553,-0.469C11.772,-0.244 10.972,-0.109 10.153,-0.066C9.334,-0.022 8.544,0 7.781,0L2.737,0L2.737,-32.025ZM8.831,-3.394C9.706,-3.394 10.428,-3.506 10.997,-3.731C11.566,-3.956 12.016,-4.353 12.347,-4.922C12.678,-5.491 12.906,-6.266 13.031,-7.247C13.156,-8.228 13.219,-9.469 13.219,-10.969L13.219,-20.906C13.219,-22.406 13.156,-23.647 13.031,-24.628C12.906,-25.609 12.678,-26.384 12.347,-26.953C12.016,-27.522 11.566,-27.919 10.997,-28.144C10.428,-28.369 9.706,-28.481 8.831,-28.481L7.594,-28.481L7.594,-3.394L8.831,-3.394Z" style="fill:white;fill-rule:nonzero;"/>
                </g>
            </g>
            <g transform="matrix(1,0,0,1,2727.17,433.862)">
                <path d="M1.549,-7.923L2.932,-7.923L4.397,0L3.182,0L2.964,-1.419L1.517,-1.419L1.308,0L0.088,0L1.549,-7.923ZM2.825,-2.324L2.268,-6.271L2.217,-6.271L1.656,-2.324L2.825,-2.324Z" style="fill:white;fill-rule:nonzero;"/>
                <path d="M5.163,-7.923L6.731,-7.923L7.491,-4.857C7.572,-4.517 7.635,-4.193 7.682,-3.885C7.728,-3.577 7.773,-3.287 7.816,-3.015L7.853,-3.015C7.897,-3.287 7.941,-3.577 7.988,-3.885C8.034,-4.193 8.098,-4.517 8.178,-4.857L8.962,-7.923L10.497,-7.923L10.497,0L9.375,0L9.375,-2.621C9.375,-3.023 9.379,-3.409 9.386,-3.781C9.394,-4.152 9.404,-4.493 9.417,-4.803C9.429,-5.114 9.443,-5.389 9.458,-5.627C9.474,-5.865 9.488,-6.053 9.5,-6.193L9.412,-6.193L8.215,-1.021L7.454,-1.021L6.248,-6.193L6.16,-6.193C6.173,-6.053 6.186,-5.865 6.202,-5.627C6.217,-5.389 6.231,-5.114 6.244,-4.803C6.256,-4.493 6.266,-4.152 6.274,-3.781C6.282,-3.409 6.285,-3.023 6.285,-2.621L6.285,0L5.163,0L5.163,-7.923Z" style="fill:white;fill-rule:nonzero;"/>
                <rect x="11.852" y="-7.923" width="1.201" height="7.923" style="fill:white;fill-rule:nonzero;"/>
                <path d="M14.102,-1.605C14.102,-1.775 14.112,-1.932 14.132,-2.076C14.152,-2.22 14.182,-2.375 14.222,-2.542L15.155,-2.542L15.155,-2.157C15.155,-1.944 15.168,-1.755 15.194,-1.591C15.22,-1.427 15.264,-1.289 15.324,-1.176C15.384,-1.063 15.465,-0.978 15.565,-0.921C15.666,-0.864 15.788,-0.835 15.934,-0.835C16.163,-0.835 16.337,-0.898 16.458,-1.023C16.579,-1.148 16.639,-1.331 16.639,-1.573C16.639,-1.696 16.63,-1.81 16.613,-1.913C16.596,-2.017 16.567,-2.12 16.525,-2.222C16.484,-2.324 16.427,-2.431 16.356,-2.544C16.285,-2.657 16.194,-2.783 16.082,-2.922L14.83,-4.411C14.607,-4.696 14.436,-4.983 14.315,-5.272C14.194,-5.561 14.134,-5.869 14.134,-6.197C14.134,-6.46 14.175,-6.701 14.257,-6.921C14.339,-7.14 14.457,-7.33 14.612,-7.489C14.766,-7.648 14.957,-7.772 15.185,-7.86C15.412,-7.948 15.669,-7.992 15.957,-7.992C16.306,-7.992 16.598,-7.943 16.831,-7.844C17.065,-7.745 17.251,-7.615 17.39,-7.454C17.53,-7.294 17.628,-7.113 17.685,-6.914C17.742,-6.714 17.771,-6.514 17.771,-6.313C17.771,-6.143 17.758,-5.986 17.731,-5.842C17.705,-5.699 17.675,-5.54 17.641,-5.367L16.713,-5.367L16.713,-5.743C16.713,-6.163 16.653,-6.486 16.532,-6.71C16.412,-6.934 16.215,-7.046 15.943,-7.046C15.717,-7.046 15.549,-6.984 15.438,-6.858C15.326,-6.733 15.271,-6.565 15.271,-6.355C15.271,-6.244 15.279,-6.143 15.296,-6.053C15.313,-5.964 15.338,-5.881 15.37,-5.805C15.403,-5.73 15.442,-5.656 15.489,-5.585C15.535,-5.514 15.587,-5.44 15.646,-5.362L17.042,-3.674C17.296,-3.343 17.491,-3.025 17.627,-2.721C17.763,-2.416 17.831,-2.094 17.831,-1.753C17.831,-1.472 17.787,-1.218 17.699,-0.993C17.611,-0.767 17.485,-0.575 17.321,-0.417C17.157,-0.26 16.959,-0.138 16.727,-0.053C16.495,0.032 16.234,0.074 15.943,0.074C15.584,0.074 15.287,0.026 15.05,-0.07C14.814,-0.165 14.625,-0.292 14.484,-0.45C14.344,-0.608 14.245,-0.787 14.187,-0.988C14.13,-1.189 14.102,-1.395 14.102,-1.605Z" style="fill:white;fill-rule:nonzero;"/>
                <path d="M20.874,-7.923L22.122,-7.923C22.31,-7.923 22.506,-7.917 22.709,-7.907C22.911,-7.896 23.109,-7.863 23.302,-7.807C23.496,-7.751 23.678,-7.665 23.85,-7.549C24.021,-7.433 24.172,-7.271 24.302,-7.062C24.432,-6.854 24.535,-6.591 24.61,-6.274C24.686,-5.957 24.724,-5.569 24.724,-5.112L24.724,-2.811C24.724,-2.353 24.686,-1.965 24.61,-1.647C24.535,-1.328 24.432,-1.065 24.302,-0.858C24.172,-0.651 24.021,-0.489 23.85,-0.373C23.678,-0.257 23.496,-0.172 23.302,-0.116C23.109,-0.06 22.911,-0.027 22.709,-0.016C22.506,-0.005 22.31,0 22.122,0L20.874,0L20.874,-7.923ZM22.382,-0.84C22.598,-0.84 22.777,-0.867 22.917,-0.923C23.058,-0.979 23.169,-1.077 23.251,-1.218C23.333,-1.358 23.39,-1.55 23.421,-1.793C23.452,-2.036 23.467,-2.343 23.467,-2.714L23.467,-5.172C23.467,-5.543 23.452,-5.85 23.421,-6.093C23.39,-6.336 23.333,-6.527 23.251,-6.668C23.169,-6.809 23.058,-6.907 22.917,-6.963C22.777,-7.018 22.598,-7.046 22.382,-7.046L22.075,-7.046L22.075,-0.84L22.382,-0.84Z" style="fill:white;fill-rule:nonzero;"/>
                <path d="M25.796,-7.923L28.732,-7.923L28.732,-6.977L26.997,-6.977L26.997,-4.606L28.338,-4.606L28.338,-3.66L26.997,-3.66L26.997,-0.946L28.778,-0.946L28.778,0L25.796,0L25.796,-7.923Z" style="fill:white;fill-rule:nonzero;"/>
                <path d="M32.628,0.074C32.332,0.074 32.083,0.028 31.882,-0.065C31.681,-0.158 31.519,-0.284 31.397,-0.443C31.275,-0.602 31.187,-0.789 31.135,-1.002C31.082,-1.215 31.056,-1.441 31.056,-1.679C31.056,-1.846 31.067,-2.034 31.088,-2.243C31.11,-2.452 31.142,-2.661 31.186,-2.871L32.146,-2.871L32.132,-1.906C32.132,-1.702 32.141,-1.532 32.16,-1.394C32.178,-1.256 32.207,-1.147 32.246,-1.065C32.284,-0.983 32.334,-0.924 32.394,-0.888C32.454,-0.853 32.528,-0.835 32.615,-0.835C32.686,-0.835 32.75,-0.849 32.807,-0.877C32.864,-0.905 32.913,-0.953 32.953,-1.023C32.993,-1.092 33.024,-1.187 33.046,-1.306C33.068,-1.425 33.078,-1.574 33.078,-1.753L33.092,-7.923L34.294,-7.923L34.294,-1.92C34.294,-1.512 34.247,-1.178 34.155,-0.918C34.062,-0.659 33.937,-0.455 33.781,-0.308C33.625,-0.162 33.447,-0.061 33.248,-0.007C33.048,0.047 32.842,0.074 32.628,0.074Z" style="fill:white;fill-rule:nonzero;"/>
                <path d="M35.62,-7.923L38.557,-7.923L38.557,-6.977L36.822,-6.977L36.822,-4.606L38.162,-4.606L38.162,-3.66L36.822,-3.66L36.822,-0.946L38.603,-0.946L38.603,0L35.62,0L35.62,-7.923Z" style="fill:white;fill-rule:nonzero;"/>
                <path d="M39.443,-7.923L40.653,-7.923L40.653,-2.115C40.653,-1.868 40.666,-1.662 40.69,-1.498C40.715,-1.334 40.755,-1.204 40.809,-1.106C40.863,-1.009 40.932,-0.939 41.017,-0.898C41.102,-0.856 41.204,-0.835 41.321,-0.835C41.439,-0.835 41.542,-0.856 41.63,-0.898C41.718,-0.939 41.791,-1.009 41.848,-1.106C41.905,-1.204 41.948,-1.334 41.978,-1.498C42.007,-1.662 42.022,-1.868 42.022,-2.115L42.022,-7.923L43.219,-7.923L43.219,-2.435C43.219,-2.049 43.188,-1.718 43.126,-1.443C43.064,-1.167 42.982,-0.937 42.88,-0.751C42.778,-0.566 42.661,-0.419 42.53,-0.311C42.398,-0.203 42.262,-0.12 42.121,-0.063C41.981,-0.005 41.841,0.031 41.702,0.046C41.563,0.062 41.436,0.07 41.321,0.07C41.207,0.07 41.081,0.062 40.943,0.046C40.806,0.031 40.667,-0.005 40.528,-0.063C40.389,-0.12 40.254,-0.203 40.125,-0.311C39.995,-0.419 39.879,-0.566 39.777,-0.751C39.675,-0.937 39.593,-1.167 39.533,-1.44C39.473,-1.714 39.443,-2.046 39.443,-2.435L39.443,-7.923Z" style="fill:white;fill-rule:nonzero;"/>
                <path d="M44.545,-7.923L45.793,-7.923C45.982,-7.923 46.177,-7.917 46.38,-7.907C46.582,-7.896 46.78,-7.863 46.974,-7.807C47.167,-7.751 47.349,-7.665 47.521,-7.549C47.693,-7.433 47.843,-7.271 47.973,-7.062C48.103,-6.854 48.206,-6.591 48.282,-6.274C48.357,-5.957 48.395,-5.569 48.395,-5.112L48.395,-2.811C48.395,-2.353 48.357,-1.965 48.282,-1.647C48.206,-1.328 48.103,-1.065 47.973,-0.858C47.843,-0.651 47.693,-0.489 47.521,-0.373C47.349,-0.257 47.167,-0.172 46.974,-0.116C46.78,-0.06 46.582,-0.027 46.38,-0.016C46.177,-0.005 45.982,0 45.793,0L44.545,0L44.545,-7.923ZM46.053,-0.84C46.269,-0.84 46.448,-0.867 46.589,-0.923C46.729,-0.979 46.841,-1.077 46.922,-1.218C47.004,-1.358 47.061,-1.55 47.092,-1.793C47.123,-2.036 47.138,-2.343 47.138,-2.714L47.138,-5.172C47.138,-5.543 47.123,-5.85 47.092,-6.093C47.061,-6.336 47.004,-6.527 46.922,-6.668C46.841,-6.809 46.729,-6.907 46.589,-6.963C46.448,-7.018 46.269,-7.046 46.053,-7.046L45.747,-7.046L45.747,-0.84L46.053,-0.84Z" style="fill:white;fill-rule:nonzero;"/>
                <rect x="49.467" y="-7.923" width="1.201" height="7.923" style="fill:white;fill-rule:nonzero;"/>
                <path d="M54.054,-7.923L55.302,-7.923C55.491,-7.923 55.686,-7.917 55.889,-7.907C56.092,-7.896 56.29,-7.863 56.483,-7.807C56.676,-7.751 56.859,-7.665 57.03,-7.549C57.202,-7.433 57.353,-7.271 57.482,-7.062C57.612,-6.854 57.715,-6.591 57.791,-6.274C57.867,-5.957 57.905,-5.569 57.905,-5.112L57.905,-2.811C57.905,-2.353 57.867,-1.965 57.791,-1.647C57.715,-1.328 57.612,-1.065 57.482,-0.858C57.353,-0.651 57.202,-0.489 57.03,-0.373C56.859,-0.257 56.676,-0.172 56.483,-0.116C56.29,-0.06 56.092,-0.027 55.889,-0.016C55.686,-0.005 55.491,0 55.302,0L54.054,0L54.054,-7.923ZM55.562,-0.84C55.778,-0.84 55.957,-0.867 56.098,-0.923C56.238,-0.979 56.35,-1.077 56.432,-1.218C56.514,-1.358 56.57,-1.55 56.601,-1.793C56.632,-2.036 56.647,-2.343 56.647,-2.714L56.647,-5.172C56.647,-5.543 56.632,-5.85 56.601,-6.093C56.57,-6.336 56.514,-6.527 56.432,-6.668C56.35,-6.809 56.238,-6.907 56.098,-6.963C55.957,-7.018 55.778,-7.046 55.562,-7.046L55.256,-7.046L55.256,-0.84L55.562,-0.84Z" style="fill:white;fill-rule:nonzero;"/>
                <rect x="58.976" y="-7.923" width="1.201" height="7.923" style="fill:white;fill-rule:nonzero;"/>
                <path d="M61.532,-7.923L63.1,-7.923L63.861,-4.857C63.941,-4.517 64.004,-4.193 64.051,-3.885C64.097,-3.577 64.142,-3.287 64.185,-3.015L64.222,-3.015C64.266,-3.287 64.311,-3.577 64.357,-3.885C64.403,-4.193 64.467,-4.517 64.547,-4.857L65.331,-7.923L66.866,-7.923L66.866,0L65.744,0L65.744,-2.621C65.744,-3.023 65.748,-3.409 65.755,-3.781C65.763,-4.152 65.773,-4.493 65.786,-4.803C65.798,-5.114 65.812,-5.389 65.827,-5.627C65.843,-5.865 65.857,-6.053 65.869,-6.193L65.781,-6.193L64.584,-1.021L63.823,-1.021L62.617,-6.193L62.529,-6.193C62.542,-6.053 62.556,-5.865 62.571,-5.627C62.587,-5.389 62.6,-5.114 62.613,-4.803C62.625,-4.493 62.635,-4.152 62.643,-3.781C62.651,-3.409 62.655,-3.023 62.655,-2.621L62.655,0L61.532,0L61.532,-7.923Z" style="fill:white;fill-rule:nonzero;"/>
                <path d="M69.093,-7.923L70.475,-7.923L71.941,0L70.726,0L70.508,-1.419L69.061,-1.419L68.852,0L67.632,0L69.093,-7.923ZM70.369,-2.324L69.812,-6.271L69.761,-6.271L69.2,-2.324L70.369,-2.324Z" style="fill:white;fill-rule:nonzero;"/>
                <path d="M72.707,-7.923L73.681,-7.923L75.601,-2.621L75.629,-2.621C75.62,-2.745 75.607,-2.882 75.592,-3.034C75.576,-3.185 75.562,-3.358 75.55,-3.551C75.538,-3.744 75.527,-3.963 75.518,-4.207C75.508,-4.452 75.504,-4.727 75.504,-5.033L75.504,-7.923L76.58,-7.923L76.58,0L75.596,0L73.685,-5.163L73.648,-5.163C73.657,-5.024 73.67,-4.873 73.685,-4.711C73.701,-4.548 73.715,-4.357 73.727,-4.138C73.739,-3.918 73.75,-3.662 73.76,-3.37C73.769,-3.078 73.773,-2.731 73.773,-2.329L73.773,0L72.707,0L72.707,-7.923Z" style="fill:white;fill-rule:nonzero;"/>
                <path d="M79.641,0.07C79.518,0.07 79.384,0.06 79.24,0.039C79.096,0.019 78.953,-0.023 78.809,-0.088C78.665,-0.153 78.527,-0.245 78.396,-0.364C78.264,-0.483 78.148,-0.64 78.048,-0.835C77.947,-1.03 77.867,-1.27 77.807,-1.556C77.746,-1.842 77.716,-2.183 77.716,-2.579L77.716,-5.385C77.716,-5.784 77.747,-6.125 77.809,-6.408C77.871,-6.691 77.953,-6.929 78.055,-7.123C78.157,-7.316 78.274,-7.47 78.407,-7.584C78.54,-7.699 78.678,-7.786 78.82,-7.846C78.963,-7.907 79.104,-7.946 79.245,-7.965C79.385,-7.983 79.516,-7.992 79.637,-7.992C79.952,-7.992 80.216,-7.948 80.428,-7.86C80.639,-7.772 80.81,-7.651 80.938,-7.498C81.066,-7.345 81.157,-7.167 81.212,-6.963C81.266,-6.759 81.293,-6.542 81.293,-6.313C81.293,-6.143 81.284,-5.986 81.267,-5.842C81.25,-5.699 81.225,-5.54 81.191,-5.367L80.217,-5.367L80.217,-5.771C80.217,-6.207 80.169,-6.533 80.073,-6.749C79.977,-6.966 79.836,-7.074 79.651,-7.074C79.539,-7.074 79.442,-7.052 79.358,-7.009C79.275,-6.966 79.205,-6.892 79.15,-6.789C79.094,-6.685 79.051,-6.548 79.022,-6.378C78.993,-6.208 78.978,-5.996 78.978,-5.743L78.978,-2.125C78.978,-1.877 78.99,-1.671 79.013,-1.508C79.036,-1.344 79.074,-1.212 79.126,-1.113C79.179,-1.014 79.248,-0.944 79.333,-0.902C79.418,-0.86 79.521,-0.84 79.641,-0.84C79.719,-0.84 79.793,-0.857 79.864,-0.893C79.935,-0.929 79.998,-0.984 80.052,-1.06C80.106,-1.136 80.149,-1.232 80.182,-1.348C80.214,-1.464 80.23,-1.6 80.23,-1.758L80.23,-2.533L81.33,-2.533L81.33,-1.8C81.33,-1.163 81.184,-0.693 80.894,-0.39C80.603,-0.087 80.186,0.066 79.641,0.07Z" style="fill:white;fill-rule:nonzero;"/>
                <path d="M82.276,-7.923L83.478,-7.923L83.478,-4.606L84.902,-4.606L84.902,-7.923L86.103,-7.923L86.103,0L84.902,0L84.902,-3.66L83.478,-3.66L83.478,0L82.276,0L82.276,-7.923Z" style="fill:white;fill-rule:nonzero;"/>
                <path d="M87.467,-7.923L90.403,-7.923L90.403,-6.977L88.668,-6.977L88.668,-4.606L90.009,-4.606L90.009,-3.66L88.668,-3.66L88.668,-0.946L90.449,-0.946L90.449,0L87.467,0L87.467,-7.923Z" style="fill:white;fill-rule:nonzero;"/>
            </g>
        </g>
        <g>
            <path d="M55.446,59.68C52.627,61.368 49.33,62.338 45.805,62.338C41.913,62.338 38.297,61.155 35.298,59.128" style="fill:white;fill-rule:nonzero;"/>
            <path d="M35.377,56.129L35.532,56.137L35.685,56.153L35.838,56.177L35.989,56.208L36.138,56.248L36.286,56.295L36.43,56.349L36.572,56.411L36.71,56.481L36.844,56.557L36.974,56.64L37.037,56.682L37.096,56.721L37.157,56.762L37.216,56.8L37.276,56.839L37.335,56.877L37.395,56.915L37.457,56.954L37.577,57.028L37.64,57.066L37.7,57.102L37.761,57.139L37.822,57.175L37.885,57.212L37.946,57.247L38.008,57.282L38.071,57.318L38.133,57.353L38.197,57.388L38.321,57.456L38.386,57.49L38.448,57.523L38.511,57.556L38.575,57.59L38.638,57.622L38.702,57.654L38.767,57.687L38.832,57.719L38.896,57.751L38.96,57.782L39.025,57.813L39.089,57.843L39.156,57.874L39.221,57.905L39.285,57.934L39.35,57.963L39.416,57.993L39.482,58.022L39.549,58.051L39.614,58.079L39.748,58.135L39.814,58.163L39.88,58.19L39.948,58.217L40.015,58.244L40.149,58.296L40.216,58.321L40.285,58.347L40.353,58.372L40.42,58.397L40.624,58.469L40.693,58.493L40.9,58.562L40.97,58.585L41.038,58.606L41.106,58.628L41.178,58.65L41.248,58.671L41.316,58.692L41.385,58.712L41.456,58.732L41.528,58.752L41.597,58.772L41.667,58.791L41.739,58.81L41.809,58.829L41.879,58.847L41.95,58.865L42.021,58.882L42.093,58.9L42.164,58.917L42.235,58.933L42.308,58.95L42.379,58.966L42.45,58.981L42.522,58.997L42.594,59.012L42.667,59.027L42.74,59.041L42.812,59.055L42.885,59.069L42.957,59.082L43.103,59.108L43.176,59.12L43.25,59.133L43.323,59.144L43.396,59.156L43.47,59.167L43.543,59.177L43.617,59.188L43.765,59.208L43.913,59.226L43.988,59.235L44.062,59.243L44.212,59.259L44.286,59.266L44.361,59.273L44.436,59.279L44.511,59.286L44.587,59.292L44.737,59.302L44.889,59.312L44.964,59.316L45.04,59.32L45.192,59.326L45.269,59.329L45.421,59.333L45.498,59.335L45.728,59.338L45.874,59.338L45.944,59.337L46.014,59.336L46.083,59.335L46.152,59.334L46.222,59.332L46.291,59.33L46.359,59.328L46.429,59.326L46.498,59.323L46.567,59.32L46.636,59.316L46.704,59.313L46.773,59.309L46.841,59.304L46.909,59.3L46.978,59.295L47.046,59.29L47.114,59.284L47.182,59.279L47.251,59.273L47.318,59.266L47.385,59.26L47.453,59.253L47.521,59.246L47.589,59.238L47.656,59.231L47.723,59.223L47.79,59.214L47.858,59.206L47.924,59.197L47.991,59.188L48.059,59.179L48.125,59.169L48.192,59.159L48.258,59.149L48.324,59.138L48.39,59.128L48.457,59.116L48.523,59.105L48.589,59.094L48.655,59.082L48.722,59.07L48.787,59.057L48.852,59.045L48.918,59.032L48.984,59.018L49.048,59.005L49.113,58.991L49.179,58.977L49.244,58.963L49.309,58.948L49.374,58.934L49.439,58.918L49.503,58.903L49.568,58.887L49.632,58.872L49.696,58.855L49.76,58.839L49.825,58.822L49.889,58.805L49.953,58.788L50.018,58.771L50.08,58.753L50.144,58.735L50.207,58.717L50.269,58.699L50.334,58.68L50.397,58.661L50.46,58.641L50.523,58.622L50.585,58.602L50.647,58.582L50.712,58.562L50.774,58.541L50.835,58.521L50.897,58.5L50.96,58.478L51.022,58.457L51.084,58.435L51.146,58.413L51.208,58.39L51.268,58.368L51.329,58.346L51.391,58.322L51.452,58.299L51.513,58.275L51.574,58.252L51.636,58.227L51.695,58.204L51.756,58.179L51.817,58.154L51.877,58.129L51.938,58.104L51.996,58.079L52.056,58.053L52.117,58.027L52.177,58L52.237,57.974L52.295,57.948L52.355,57.921L52.414,57.893L52.473,57.866L52.533,57.838L52.59,57.811L52.649,57.782L52.708,57.754L52.766,57.726L52.825,57.697L52.883,57.667L52.939,57.639L52.997,57.609L53.056,57.579L53.114,57.549L53.171,57.519L53.228,57.488L53.286,57.458L53.342,57.427L53.399,57.396L53.454,57.366L53.512,57.333L53.569,57.301L53.626,57.269L53.683,57.236L53.738,57.204L53.792,57.172L53.849,57.139L53.911,57.102L54.046,57.027L54.184,56.958L54.326,56.897L54.471,56.843L54.618,56.796L54.768,56.757L54.919,56.726L55.072,56.703L55.225,56.688L55.38,56.68L55.534,56.681L55.688,56.689L55.842,56.706L55.995,56.73L56.146,56.762L56.295,56.802L56.442,56.85L56.586,56.905L56.728,56.967L56.866,57.037L57,57.113L57.13,57.197L57.255,57.287L57.376,57.383L57.492,57.485L57.602,57.594L57.707,57.707L57.805,57.826L57.897,57.95L57.983,58.079L58.062,58.212L58.134,58.348L58.199,58.488L58.257,58.632L58.307,58.778L58.35,58.926L58.385,59.077L58.412,59.229L58.431,59.382L58.443,59.536L58.446,59.691L58.441,59.845L58.429,59.999L58.409,60.152L58.38,60.304L58.344,60.454L58.301,60.602L58.249,60.748L58.191,60.891L58.125,61.031L58.051,61.167L57.971,61.299L57.885,61.427L57.792,61.55L57.692,61.668L57.587,61.781L57.476,61.889L57.359,61.99L57.238,62.086L57.112,62.175L56.981,62.257L56.911,62.299L56.835,62.344L56.756,62.39L56.677,62.436L56.601,62.479L56.523,62.524L56.446,62.567L56.369,62.61L56.289,62.654L56.211,62.697L56.132,62.74L56.053,62.782L55.975,62.824L55.894,62.866L55.815,62.907L55.736,62.948L55.657,62.988L55.575,63.03L55.495,63.07L55.416,63.109L55.334,63.149L55.253,63.188L55.173,63.227L55.09,63.266L55.009,63.304L54.928,63.341L54.846,63.379L54.765,63.416L54.682,63.453L54.599,63.49L54.517,63.526L54.436,63.561L54.353,63.597L54.268,63.633L54.185,63.667L54.102,63.702L54.019,63.736L53.936,63.77L53.851,63.804L53.767,63.837L53.683,63.87L53.598,63.902L53.514,63.934L53.43,63.966L53.345,63.997L53.258,64.029L53.174,64.06L53.088,64.09L53.003,64.12L52.917,64.15L52.832,64.179L52.746,64.208L52.658,64.238L52.571,64.266L52.486,64.294L52.4,64.321L52.312,64.349L52.225,64.376L52.138,64.403L52.05,64.429L51.965,64.454L51.876,64.48L51.788,64.505L51.701,64.53L51.611,64.555L51.524,64.579L51.435,64.603L51.347,64.626L51.258,64.649L51.17,64.672L51.081,64.694L50.991,64.716L50.902,64.738L50.813,64.759L50.723,64.78L50.634,64.8L50.543,64.821L50.453,64.84L50.365,64.859L50.274,64.879L50.183,64.897L50.093,64.916L50.002,64.933L49.912,64.951L49.82,64.968L49.729,64.985L49.639,65.001L49.547,65.017L49.455,65.033L49.365,65.048L49.273,65.063L49.181,65.077L49.089,65.092L48.997,65.105L48.905,65.119L48.813,65.131L48.721,65.144L48.627,65.156L48.535,65.168L48.443,65.179L48.35,65.19L48.257,65.201L48.164,65.211L48.071,65.221L47.978,65.231L47.884,65.24L47.79,65.248L47.697,65.257L47.604,65.264L47.509,65.272L47.416,65.279L47.322,65.286L47.228,65.292L47.134,65.298L47.039,65.303L46.945,65.308L46.85,65.313L46.755,65.317L46.662,65.321L46.567,65.325L46.471,65.328L46.376,65.33L46.282,65.333L46.186,65.334L46.091,65.336L45.996,65.337L45.901,65.337L45.805,65.338L45.699,65.337L45.594,65.337L45.489,65.335L45.384,65.334L45.279,65.331L45.174,65.329L45.069,65.325L44.965,65.322L44.86,65.318L44.756,65.313L44.651,65.308L44.547,65.302L44.443,65.296L44.339,65.289L44.235,65.282L44.131,65.274L44.028,65.266L43.925,65.258L43.821,65.248L43.718,65.239L43.614,65.229L43.512,65.218L43.409,65.207L43.306,65.196L43.204,65.184L43.102,65.171L42.999,65.158L42.897,65.145L42.795,65.131L42.693,65.117L42.591,65.102L42.49,65.087L42.388,65.071L42.287,65.055L42.187,65.038L42.085,65.021L41.984,65.003L41.884,64.985L41.783,64.967L41.683,64.948L41.583,64.928L41.483,64.909L41.383,64.888L41.284,64.868L41.184,64.846L41.084,64.824L40.985,64.802L40.886,64.78L40.787,64.756L40.688,64.733L40.59,64.709L40.492,64.685L40.393,64.66L40.295,64.634L40.197,64.609L40.101,64.583L40.003,64.556L39.904,64.529L39.809,64.502L39.712,64.474L39.615,64.445L39.517,64.416L39.421,64.387L39.327,64.358L39.229,64.327L39.133,64.296L39.038,64.266L38.943,64.235L38.848,64.203L38.753,64.17L38.658,64.138L38.564,64.105L38.468,64.071L38.375,64.037L38.28,64.003L38.187,63.968L38.093,63.933L37.999,63.897L37.907,63.862L37.813,63.825L37.721,63.788L37.629,63.751L37.536,63.713L37.443,63.675L37.351,63.637L37.261,63.598L37.168,63.558L37.077,63.519L36.987,63.479L36.896,63.439L36.804,63.397L36.713,63.355L36.623,63.314L36.535,63.273L36.444,63.23L36.355,63.187L36.265,63.144L36.176,63.1L36.088,63.056L36.001,63.012L35.911,62.967L35.822,62.921L35.736,62.876L35.647,62.83L35.559,62.783L35.473,62.737L35.386,62.689L35.298,62.641L35.213,62.594L35.127,62.546L35.042,62.498L34.955,62.448L34.869,62.398L34.785,62.349L34.699,62.299L34.614,62.248L34.529,62.197L34.447,62.147L34.362,62.094L34.277,62.042L34.196,61.991L34.112,61.938L34.029,61.884L33.945,61.83L33.863,61.776L33.782,61.723L33.699,61.668L33.622,61.616L33.496,61.526L33.375,61.43L33.259,61.328L33.148,61.22L33.043,61.107L32.944,60.988L32.852,60.864L32.766,60.736L32.686,60.604L32.614,60.467L32.548,60.327L32.49,60.184L32.439,60.038L32.396,59.89L32.361,59.739L32.333,59.587L32.314,59.434L32.302,59.28L32.298,59.126L32.302,58.971L32.314,58.817L32.334,58.664L32.362,58.512L32.397,58.362L32.441,58.213L32.492,58.068L32.55,57.924L32.615,57.785L32.688,57.648L32.768,57.516L32.854,57.388L32.947,57.264L33.046,57.146L33.151,57.032L33.262,56.925L33.378,56.823L33.499,56.727L33.625,56.638L33.755,56.555L33.89,56.479L34.028,56.41L34.17,56.348L34.314,56.294L34.461,56.247L34.611,56.207L34.762,56.176L34.915,56.152L35.068,56.136L35.223,56.129L35.377,56.129Z" style="fill:white;"/>
        </g>
    </g>
</svg>
